<svg width="20" height="20" viewBox="0 0 20 20" fill="none" xmlns="http://www.w3.org/2000/svg">
<path d="M11.6667 7.08334C11.6667 8.00378 10.9205 8.75001 10 8.75001C9.07954 8.75001 8.33337 8.00378 8.33337 7.08334C8.33337 6.16286 9.07954 5.41667 10 5.41667C10.9205 5.41667 11.6667 6.16286 11.6667 7.08334Z" stroke="#7CC558" stroke-width="1.5" stroke-linecap="round" stroke-linejoin="round"/>
<path d="M7.99165 11.3735C7.46767 11.6806 6.0938 12.3078 6.93057 13.0925C7.33933 13.4758 7.79458 13.75 8.36696 13.75H11.633C12.2053 13.75 12.6606 13.4758 13.0694 13.0925C13.9061 12.3078 12.5323 11.6806 12.0083 11.3735C10.7795 10.6533 9.22037 10.6533 7.99165 11.3735Z" stroke="#7CC558" stroke-width="1.5" stroke-linejoin="round"/>
<path d="M17.5 9.31942V6.90025C17.5 5.53358 17.5 4.85024 17.1632 4.40441C16.8265 3.95858 16.0651 3.74214 14.5423 3.30926C13.5018 3.01351 12.5847 2.6572 11.8519 2.33191C10.8528 1.88842 10.3533 1.66667 10 1.66667C9.64667 1.66667 9.14717 1.88842 8.14809 2.33191C7.41532 2.6572 6.4982 3.0135 5.45778 3.30926C3.93494 3.74214 3.17352 3.95858 2.83676 4.40441C2.5 4.85024 2.5 5.53358 2.5 6.90025V9.31942C2.5 14.0071 6.71897 16.8196 8.82833 17.9328C9.33425 18.1998 9.58717 18.3333 10 18.3333C10.4128 18.3333 10.6657 18.1998 11.1717 17.9328C13.281 16.8196 17.5 14.0071 17.5 9.31942Z" stroke="#7CC558" stroke-width="1.5" stroke-linecap="round" stroke-linejoin="round"/>
</svg>
