<svg width="20" height="20" viewBox="0 0 20 20" fill="none" xmlns="http://www.w3.org/2000/svg">
<path d="M15.5134 16.6667H15.9219C16.8801 16.6667 17.6423 16.2301 18.3266 15.6197C20.065 14.0688 15.9784 12.5 14.5834 12.5M12.9167 4.22398C13.1059 4.18645 13.3024 4.16667 13.504 4.16667C15.0206 4.16667 16.25 5.28596 16.25 6.66667C16.25 8.04738 15.0206 9.16667 13.504 9.16667C13.3024 9.16667 13.1059 9.14692 12.9167 9.10934" stroke="#7CC558" stroke-width="1.5" stroke-linecap="round"/>
<path d="M3.73443 13.426C2.75195 13.9525 0.175949 15.0276 1.7449 16.3728C2.51133 17.03 3.36493 17.5 4.4381 17.5H10.5619C11.6351 17.5 12.4887 17.03 13.2551 16.3728C14.8241 15.0276 12.2481 13.9525 11.2656 13.426C8.96167 12.1913 6.03833 12.1913 3.73443 13.426Z" stroke="#7CC558" stroke-width="1.5"/>
<path d="M10.8334 6.25001C10.8334 8.09096 9.34094 9.58334 7.50002 9.58334C5.65907 9.58334 4.16669 8.09096 4.16669 6.25001C4.16669 4.40905 5.65907 2.91667 7.50002 2.91667C9.34094 2.91667 10.8334 4.40905 10.8334 6.25001Z" stroke="#7CC558" stroke-width="1.5"/>
</svg>
