<svg width="24" height="24" viewBox="0 0 24 24" fill="none" xmlns="http://www.w3.org/2000/svg">
<g clip-path="url(#clip0_2096_83)">
<path fill-rule="evenodd" clip-rule="evenodd" d="M21.6488 19.875C20.2209 17.4066 18.0206 15.6366 15.4528 14.7975C18.0635 13.2433 19.3141 10.1364 18.5082 7.2069C17.7022 4.27741 15.0383 2.24745 12 2.24745C8.96167 2.24745 6.29779 4.27741 5.49182 7.2069C4.68585 10.1364 5.93645 13.2433 8.54719 14.7975C5.97938 15.6356 3.77906 17.4056 2.35125 19.875C2.2087 20.1074 2.20353 20.3989 2.33773 20.6363C2.47194 20.8736 2.72438 21.0194 2.99702 21.0171C3.26967 21.0147 3.51958 20.8646 3.64969 20.625C5.41594 17.5725 8.53781 15.75 12 15.75C15.4622 15.75 18.5841 17.5725 20.3503 20.625C20.4804 20.8646 20.7303 21.0147 21.003 21.0171C21.2756 21.0194 21.5281 20.8736 21.6623 20.6363C21.7965 20.3989 21.7913 20.1074 21.6488 19.875ZM6.75 9C6.75 6.1005 9.1005 3.75 12 3.75C14.8995 3.75 17.25 6.1005 17.25 9C17.25 11.8995 14.8995 14.25 12 14.25C9.10179 14.2469 6.7531 11.8982 6.75 9Z" fill="#121A0F"/>
</g>
<defs>
<clipPath id="clip0_2096_83">
<rect width="24" height="24" fill="white"/>
</clipPath>
</defs>
</svg>
