<svg width="20" height="20" viewBox="0 0 20 20" fill="none" xmlns="http://www.w3.org/2000/svg">
<g clip-path="url(#clip0_2126_39)">
<path d="M10.4592 11.3401C9.19302 12.7006 4.34195 15.0089 5.85655 17.5229C6.40061 18.4259 7.96689 18.3333 9.05102 18.3333H10.949C13.7948 18.3333 15.2176 18.3333 16.1909 17.5238C17.1641 16.7143 17.3726 15.3574 17.7897 12.6437L18.0405 11.0113C18.3347 9.09683 18.4818 8.13969 18.1199 7.29115C17.7579 6.4426 16.955 5.86203 15.3491 4.70088L14.1492 3.83333C12.1514 2.38889 11.1526 1.66667 10 1.66667C8.84744 1.66667 7.8486 2.38889 5.85085 3.83333L4.65097 4.70088C3.04505 5.86203 2.24208 6.4426 1.88016 7.29115C1.51824 8.13969 1.66533 9.09683 1.95951 11.0113L2.21038 12.6437C2.50705 14.5742 2.6982 15.8181 3.1342 16.6667M10.1501 15.1049C12.1237 14.7228 13.4757 13.5082 14.1116 11.5458C14.8319 9.32342 13.8556 6.5698 11.396 5.93282C11.396 5.93282 12.1544 6.83684 11.6644 7.62988C10.72 9.32958 8.02045 8.7645 6.93781 10.9304C6.30029 12.1396 6.49356 13.5708 7.41155 14.4636C7.98837 15.0245 9.20235 15.2884 10.1501 15.1049Z" stroke="#7CC558" stroke-width="1.5" stroke-linecap="round" stroke-linejoin="round"/>
</g>
<defs>
<clipPath id="clip0_2126_39">
<rect width="20" height="20" fill="white"/>
</clipPath>
</defs>
</svg>
